<?xml version="1.0" encoding="UTF-8"?>
<svg xmlns="http://www.w3.org/2000/svg" xmlns:xlink="http://www.w3.org/1999/xlink" width="168px" height="168px" viewBox="0 0 168 168" version="1.1">
<g id="surface1">
<path style=" stroke:none;fill-rule:nonzero;fill:rgb(99.215686%,82.352942%,12.941177%);fill-opacity:1;" d="M 69.550781 65.773438 C 71.558594 66.804688 73.386719 66.917969 75.601562 66.527344 C 77.015625 66.050781 78.351562 65.417969 79.691406 64.757812 C 83.792969 62.804688 88.886719 62.921875 93.105469 64.421875 C 94.878906 65.199219 96.472656 66.210938 98.074219 67.292969 C 99.535156 68.21875 100.789062 68.445312 102.480469 68.207031 C 103.359375 67.867188 104.136719 67.398438 104.9375 66.90625 C 108.347656 64.964844 111.683594 64.335938 115.585938 65.183594 C 119.773438 66.710938 122.847656 69.125 124.769531 73.191406 C 126.097656 76.710938 126.210938 80.328125 124.742188 83.824219 C 122.410156 88.511719 119.292969 90.46875 114.425781 92.121094 C 114.046875 92.253906 113.664062 92.386719 113.273438 92.527344 C 112.929688 92.640625 112.582031 92.753906 112.226562 92.871094 C 109.699219 94.214844 108.796875 96.472656 107.878906 99.058594 C 105.820312 104.472656 102.789062 108.101562 97.441406 110.542969 C 92.859375 112.457031 88.039062 112.1875 83.484375 110.417969 C 79.375 108.558594 76.714844 105.765625 74.417969 101.9375 C 73.222656 100.011719 71.730469 98.808594 69.515625 98.277344 C 67.308594 97.9375 65.425781 98.375 63.273438 98.878906 C 58.867188 99.832031 54.144531 98.480469 50.398438 96.097656 C 46.394531 93.03125 43.855469 89.257812 42.671875 84.335938 C 42.074219 79.28125 43.113281 74.613281 46.035156 70.390625 C 51.75 63.238281 61.574219 61.285156 69.550781 65.773438 Z M 65.183594 71.566406 C 65.070312 72.464844 65.070312 72.464844 65.183594 73.246094 C 66.746094 73.589844 67.980469 73.488281 69.550781 73.246094 C 69.773438 73.359375 69.996094 73.46875 70.222656 73.585938 C 70.496094 77.363281 70.039062 80.550781 68.894531 84.171875 C 68.179688 86.414062 68.179688 86.414062 68.542969 88.703125 C 69.789062 89.535156 70.777344 89.5 72.21875 89.503906 C 72.578125 89.515625 72.578125 89.515625 72.949219 89.527344 C 74.070312 89.53125 74.820312 89.441406 75.789062 88.863281 C 76.496094 87.648438 76.273438 86.644531 75.9375 85.34375 C 75.644531 84.449219 75.292969 83.585938 74.929688 82.71875 C 73.996094 80.367188 73.054688 77.882812 73.878906 75.371094 C 74.324219 74.449219 74.695312 74.0625 75.601562 73.585938 C 76.210938 73.6875 76.210938 73.6875 76.945312 73.921875 C 77.726562 73.933594 78.511719 73.933594 79.296875 73.921875 C 79.527344 72.960938 79.527344 72.960938 79.632812 71.902344 C 78.75 70.578125 78.140625 70.558594 76.609375 70.222656 C 75.136719 70.101562 73.671875 70.097656 72.199219 70.097656 C 71.503906 70.097656 70.808594 70.085938 70.113281 70.074219 C 69.675781 70.070312 69.234375 70.070312 68.78125 70.070312 C 68.382812 70.066406 67.980469 70.0625 67.570312 70.0625 C 66.324219 70.253906 65.925781 70.570312 65.183594 71.566406 Z M 56.113281 71.902344 C 56 72.125 55.890625 72.347656 55.777344 72.574219 C 55.390625 72.628906 55.390625 72.628906 55 72.679688 C 53.75 73 53.449219 73.523438 52.753906 74.59375 C 51.222656 77.199219 51.066406 80.710938 51.640625 83.644531 C 52.273438 85.898438 53.371094 88.445312 55.367188 89.777344 C 56.878906 90.613281 58.058594 90.941406 59.808594 90.71875 C 61.332031 90.203125 62.566406 89.703125 63.503906 88.367188 C 63.871094 87.089844 63.929688 86.023438 63.589844 84.734375 C 63.160156 83.988281 62.828125 83.53125 62.160156 82.992188 C 61.382812 82.824219 61.382812 82.824219 60.519531 82.820312 C 60.046875 82.800781 60.046875 82.800781 59.5625 82.785156 C 59.234375 82.777344 58.90625 82.769531 58.570312 82.761719 C 58.070312 82.742188 58.070312 82.742188 57.5625 82.726562 C 56.742188 82.699219 55.925781 82.675781 55.105469 82.65625 C 54.179688 80.132812 54.042969 77.78125 55.105469 75.265625 C 55.324219 75.265625 55.546875 75.265625 55.777344 75.265625 C 55.777344 75.042969 55.777344 74.820312 55.777344 74.59375 C 56.015625 74.546875 56.253906 74.503906 56.5 74.457031 C 56.808594 74.398438 57.117188 74.339844 57.433594 74.277344 C 57.742188 74.21875 58.050781 74.160156 58.367188 74.101562 C 59.121094 73.996094 59.121094 73.996094 59.472656 73.585938 C 59.554688 72.757812 59.554688 72.757812 59.472656 71.902344 C 59.25 71.683594 59.027344 71.460938 58.800781 71.230469 C 57.539062 71.230469 57.128906 71.273438 56.113281 71.902344 Z M 103.152344 73.585938 C 103.207031 74.207031 103.269531 74.832031 103.367188 75.453125 C 103.507812 76.394531 103.59375 77.335938 103.675781 78.289062 C 103.71875 78.765625 103.71875 78.765625 103.761719 79.253906 C 103.78125 79.488281 103.804688 79.726562 103.824219 79.96875 C 102.875 79.769531 102.875 79.769531 101.808594 79.296875 C 101.265625 78.285156 101.265625 78.285156 100.882812 77.089844 C 100.644531 76.367188 100.398438 75.644531 100.128906 74.929688 C 99.132812 74.429688 98.199219 74.570312 97.105469 74.59375 C 96.847656 75.195312 96.847656 75.195312 96.769531 75.9375 C 97.144531 76.625 97.144531 76.625 97.714844 77.257812 C 98.9375 78.804688 99.550781 79.789062 99.371094 81.796875 C 99.246094 82.722656 99.066406 83.484375 98.761719 84.378906 C 98.179688 86.160156 98.28125 87.703125 99.121094 89.375 C 99.230469 89.488281 99.339844 89.597656 99.457031 89.710938 C 101.246094 89.695312 102.695312 89.453125 104.160156 88.367188 C 104.023438 87.378906 103.90625 86.789062 103.277344 85.996094 C 102.816406 85.34375 102.816406 85.34375 102.921875 84.589844 C 102.996094 84.394531 103.074219 84.199219 103.152344 84 C 103.929688 84 104.703125 84 105.503906 84 C 105.542969 84.238281 105.585938 84.476562 105.628906 84.722656 C 105.683594 85.03125 105.738281 85.339844 105.796875 85.660156 C 105.851562 85.96875 105.90625 86.273438 105.964844 86.59375 C 106.035156 86.84375 106.105469 87.097656 106.175781 87.359375 C 107.351562 87.949219 108.621094 87.644531 109.871094 87.359375 C 110.792969 86.863281 110.792969 86.863281 111.214844 86.015625 C 111.324219 85 111.324219 85 110.878906 84 C 109.640625 82.757812 108.425781 82.082031 106.847656 81.3125 C 106.738281 81.089844 106.625 80.867188 106.511719 80.640625 C 106.289062 80.640625 106.070312 80.640625 105.839844 80.640625 C 105.730469 79.863281 105.617188 79.085938 105.503906 78.289062 C 105.613281 78.289062 105.726562 78.289062 105.839844 78.289062 C 105.914062 77.582031 105.984375 76.875 106.050781 76.167969 C 106.089844 75.773438 106.128906 75.378906 106.167969 74.972656 C 106.273438 73.863281 106.273438 73.863281 105.503906 72.910156 C 104.34375 72.765625 104 72.738281 103.152344 73.585938 Z M 89.710938 74.929688 C 87.9375 76.050781 87.578125 77.222656 87.046875 79.148438 C 86.878906 79.71875 86.710938 80.292969 86.539062 80.863281 C 86.457031 81.15625 86.371094 81.453125 86.285156 81.753906 C 86.015625 82.660156 85.726562 83.554688 85.429688 84.449219 C 85.285156 84.878906 85.285156 84.878906 85.140625 85.320312 C 84.957031 85.871094 84.773438 86.425781 84.585938 86.976562 C 84.503906 87.226562 84.421875 87.476562 84.335938 87.738281 C 84.265625 87.957031 84.191406 88.175781 84.113281 88.402344 C 83.976562 89.171875 84.0625 89.65625 84.335938 90.382812 C 85.207031 90.820312 85.882812 90.789062 86.855469 90.804688 C 87.183594 90.8125 87.515625 90.820312 87.851562 90.832031 C 88.132812 90.792969 88.414062 90.757812 88.703125 90.71875 C 89.445312 89.605469 89.441406 89.429688 89.269531 88.179688 C 89.238281 87.914062 89.203125 87.652344 89.171875 87.378906 C 89.070312 86.667969 89.070312 86.667969 88.703125 86.015625 C 88.671875 85.527344 88.660156 85.035156 88.660156 84.546875 C 88.660156 84.285156 88.660156 84.027344 88.660156 83.761719 C 88.703125 82.992188 88.703125 82.992188 88.894531 82.242188 C 88.941406 82.046875 88.992188 81.851562 89.039062 81.648438 C 88.929688 81.539062 88.816406 81.425781 88.703125 81.3125 C 88.6875 80.527344 88.691406 79.742188 88.703125 78.960938 C 88.703125 78.515625 88.703125 78.074219 88.703125 77.617188 C 89.683594 76.960938 90.257812 76.792969 91.390625 76.609375 C 91.390625 76.273438 91.390625 75.941406 91.390625 75.601562 C 90.835938 75.378906 90.28125 75.15625 89.710938 74.929688 Z M 91.390625 76.609375 C 91.613281 77.050781 91.835938 77.496094 92.0625 77.953125 C 91.953125 77.507812 91.84375 77.066406 91.726562 76.609375 C 91.617188 76.609375 91.507812 76.609375 91.390625 76.609375 Z M 92.0625 77.953125 C 92.0625 78.839844 92.0625 79.726562 92.0625 80.640625 C 91.84375 80.640625 91.621094 80.640625 91.390625 80.640625 C 91.164062 81.613281 91.164062 81.613281 91.054688 82.65625 C 91.277344 82.878906 91.5 83.097656 91.726562 83.328125 C 91.632812 83.78125 91.515625 84.226562 91.390625 84.671875 C 91.359375 85.40625 91.347656 86.140625 91.351562 86.878906 C 91.347656 87.257812 91.347656 87.640625 91.347656 88.035156 C 91.347656 89.058594 91.347656 89.058594 91.726562 90.046875 C 92.570312 90.46875 93.164062 90.429688 94.101562 90.425781 C 94.402344 90.425781 94.703125 90.425781 95.015625 90.429688 C 95.75 90.46875 95.75 90.46875 96.097656 90.046875 C 96.210938 87.421875 95.421875 85.410156 94.269531 83.09375 C 93.484375 81.433594 92.9375 79.707031 92.398438 77.953125 C 92.289062 77.953125 92.179688 77.953125 92.0625 77.953125 Z M 91.390625 78.960938 C 91.726562 79.632812 91.726562 79.632812 91.726562 79.632812 Z M 91.390625 78.960938 "/>
<path style=" stroke:none;fill-rule:nonzero;fill:rgb(98.431373%,83.137256%,13.333334%);fill-opacity:1;" d="M 73.855469 57.496094 C 74.824219 58.328125 75.195312 58.929688 75.601562 60.144531 C 75.695312 61.738281 75.484375 62.839844 74.59375 64.175781 C 73.265625 65.0625 72.144531 65.289062 70.558594 65.183594 C 69.59375 64.765625 69.59375 64.765625 68.878906 64.175781 C 68.6875 64.042969 68.492188 63.914062 68.292969 63.777344 C 67.59375 62.765625 67.5 61.679688 67.535156 60.480469 C 67.925781 59.164062 68.25 58.390625 69.277344 57.476562 C 70.882812 56.871094 72.261719 56.859375 73.855469 57.496094 Z M 73.855469 57.496094 "/>
<path style=" stroke:none;fill-rule:nonzero;fill:rgb(98.823529%,82.745099%,14.117648%);fill-opacity:1;" d="M 117.601562 96.433594 C 118.726562 97.167969 119.1875 97.5 119.617188 98.785156 C 119.804688 101.148438 119.804688 101.148438 119.050781 102.4375 C 117.832031 103.554688 117.070312 103.832031 115.414062 103.804688 C 114.019531 103.429688 113.472656 102.910156 112.558594 101.808594 C 112.023438 100.730469 112.085938 99.976562 112.222656 98.785156 C 113.644531 96.507812 114.914062 95.832031 117.601562 96.433594 Z M 117.601562 96.433594 "/>
<path style=" stroke:none;fill-rule:nonzero;fill:rgb(98.431373%,83.137256%,13.333334%);fill-opacity:1;" d="M 95.761719 56.785156 C 96.367188 57.140625 96.367188 57.140625 96.769531 57.792969 C 96.925781 58.71875 96.941406 59.554688 96.769531 60.480469 C 96.03125 61.382812 95.5625 61.46875 94.414062 61.636719 C 93.40625 61.488281 93.40625 61.488281 92.609375 60.941406 C 91.902344 59.910156 91.886719 59.355469 92.0625 58.128906 C 92.988281 56.5 94.007812 56.257812 95.761719 56.785156 Z M 95.761719 56.785156 "/>
<path style=" stroke:none;fill-rule:nonzero;fill:rgb(98.039216%,83.529413%,19.215687%);fill-opacity:1;" d="M 102.480469 73.246094 C 102.703125 73.246094 102.921875 73.246094 103.152344 73.246094 C 103.332031 74.117188 103.503906 74.984375 103.675781 75.851562 C 103.753906 76.21875 103.753906 76.21875 103.832031 76.59375 C 104.074219 77.839844 104.191406 78.757812 103.824219 79.96875 C 103.046875 80.074219 103.046875 80.074219 102.144531 79.96875 C 100.949219 78.589844 100.601562 76.65625 100.128906 74.929688 C 101.136719 75.265625 101.136719 75.265625 101.472656 75.9375 C 101.804688 75.824219 102.136719 75.714844 102.480469 75.601562 C 102.480469 74.824219 102.480469 74.046875 102.480469 73.246094 Z M 102.480469 73.246094 "/>
<path style=" stroke:none;fill-rule:nonzero;fill:rgb(96.078432%,85.09804%,25.098041%);fill-opacity:1;" d="M 103.152344 83.664062 C 103.9375 83.761719 104.722656 83.871094 105.503906 84 C 106.320312 86.113281 106.320312 86.113281 105.839844 87.359375 C 105.335938 86.226562 105.167969 85.609375 105.167969 84.335938 C 104.835938 84.445312 104.503906 84.558594 104.160156 84.671875 C 104.269531 86.003906 104.382812 87.332031 104.496094 88.703125 C 104.050781 88.816406 103.609375 88.925781 103.152344 89.039062 C 103.375 88.816406 103.59375 88.597656 103.824219 88.367188 C 103.742188 87.351562 103.578125 86.800781 102.941406 85.996094 C 102.480469 85.34375 102.480469 85.34375 102.5625 84.609375 C 102.816406 84 102.816406 84 103.152344 83.664062 Z M 103.152344 83.664062 "/>
<path style=" stroke:none;fill-rule:nonzero;fill:rgb(96.862745%,85.882354%,26.274511%);fill-opacity:1;" d="M 110.878906 84.335938 C 111.210938 84.445312 111.546875 84.558594 111.886719 84.671875 C 112 85.226562 112.109375 85.78125 112.222656 86.351562 C 111.558594 86.683594 111.558594 86.683594 110.878906 87.023438 C 110.878906 87.246094 110.878906 87.46875 110.878906 87.695312 C 109.480469 88.230469 108.347656 88.46875 106.847656 88.367188 C 106.625 88.257812 106.40625 88.144531 106.175781 88.03125 C 106.175781 87.808594 106.175781 87.589844 106.175781 87.359375 C 106.585938 87.375 106.992188 87.386719 107.414062 87.402344 C 108.601562 87.40625 109.46875 87.226562 110.542969 86.6875 C 110.65625 85.910156 110.765625 85.136719 110.878906 84.335938 Z M 110.878906 84.335938 "/>
<path style=" stroke:none;fill-rule:nonzero;fill:rgb(94.901961%,82.352942%,26.666668%);fill-opacity:1;" d="M 67.871094 85.34375 C 68.09375 85.34375 68.316406 85.34375 68.542969 85.34375 C 68.542969 86.453125 68.542969 87.5625 68.542969 88.703125 C 69.472656 89.015625 70.015625 89.078125 70.972656 89.074219 C 71.242188 89.070312 71.511719 89.070312 71.789062 89.070312 C 72.070312 89.066406 72.351562 89.0625 72.640625 89.0625 C 73.066406 89.058594 73.066406 89.058594 73.5 89.054688 C 74.199219 89.050781 74.898438 89.046875 75.601562 89.039062 C 75.601562 89.261719 75.601562 89.484375 75.601562 89.710938 C 73.273438 89.710938 70.941406 89.710938 68.542969 89.710938 C 67.839844 87.949219 67.808594 87.167969 67.871094 85.34375 Z M 67.871094 85.34375 "/>
<path style=" stroke:none;fill-rule:nonzero;fill:rgb(97.647059%,82.352942%,18.431373%);fill-opacity:1;" d="M 121.527344 86.792969 C 121.910156 86.90625 121.910156 86.90625 122.304688 87.023438 C 121.804688 88.296875 121.054688 88.921875 119.953125 89.710938 C 119.839844 89.710938 119.730469 89.710938 119.617188 89.710938 C 119.496094 87.894531 119.496094 87.894531 120.015625 87.046875 C 120.625 86.6875 120.625 86.6875 121.527344 86.792969 Z M 121.527344 86.792969 "/>
<path style=" stroke:none;fill-rule:nonzero;fill:rgb(94.901961%,82.352942%,31.764707%);fill-opacity:1;" d="M 55.105469 75.265625 C 55.214844 75.707031 55.324219 76.152344 55.441406 76.609375 C 55.21875 76.609375 54.996094 76.609375 54.769531 76.609375 C 54.816406 77.210938 54.863281 77.8125 54.914062 78.414062 C 54.957031 78.917969 54.957031 78.917969 54.996094 79.429688 C 55.054688 80.296875 55.054688 80.296875 55.441406 80.976562 C 55.21875 81.308594 54.996094 81.640625 54.769531 81.984375 C 53.882812 80.449219 53.910156 79.011719 54.097656 77.28125 C 54.601562 76.0625 54.601562 76.0625 55.105469 75.265625 Z M 55.105469 75.265625 "/>
<path style=" stroke:none;fill-rule:nonzero;fill:rgb(96.078432%,82.745099%,27.843139%);fill-opacity:1;" d="M 54.433594 89.039062 C 54.621094 89.136719 54.8125 89.234375 55.011719 89.335938 C 57.417969 90.492188 59.199219 90.558594 61.824219 90.046875 C 61.183594 90.90625 60.816406 91.054688 59.746094 91.285156 C 56.464844 91.566406 56.464844 91.566406 55.429688 91.058594 C 54.976562 90.613281 54.976562 90.613281 54.433594 89.710938 C 54.433594 89.492188 54.433594 89.269531 54.433594 89.039062 Z M 54.433594 89.039062 "/>
<path style=" stroke:none;fill-rule:nonzero;fill:rgb(96.862745%,85.490197%,20.784314%);fill-opacity:1;" d="M 71.230469 98.449219 C 72.355469 98.636719 73.257812 98.902344 74.257812 99.457031 C 74.144531 99.789062 74.035156 100.121094 73.921875 100.464844 C 74.140625 100.464844 74.363281 100.464844 74.59375 100.464844 C 75.160156 101.242188 75.160156 101.242188 75.601562 102.144531 C 75.488281 102.476562 75.378906 102.808594 75.265625 103.152344 C 75.140625 102.949219 75.019531 102.746094 74.894531 102.539062 C 73.832031 100.847656 72.964844 99.773438 71.230469 98.785156 C 71.230469 98.671875 71.230469 98.5625 71.230469 98.449219 Z M 71.230469 98.449219 "/>
<path style=" stroke:none;fill-rule:nonzero;fill:rgb(97.254902%,86.666667%,29.019609%);fill-opacity:1;" d="M 103.152344 74.929688 C 103.722656 76.070312 103.933594 76.621094 104.054688 77.824219 C 104.085938 78.085938 104.113281 78.347656 104.144531 78.617188 C 104.160156 79.296875 104.160156 79.296875 103.824219 79.96875 C 103.269531 79.96875 102.714844 79.96875 102.144531 79.96875 C 102.03125 79.746094 101.921875 79.523438 101.808594 79.296875 C 102.25 79.296875 102.695312 79.296875 103.152344 79.296875 C 103.152344 77.855469 103.152344 76.414062 103.152344 74.929688 Z M 103.152344 74.929688 "/>
<path style=" stroke:none;fill-rule:nonzero;fill:rgb(96.078432%,84.705883%,16.862746%);fill-opacity:1;" d="M 45.023438 71.902344 C 45.246094 72.015625 45.46875 72.125 45.695312 72.238281 C 45.136719 73.921875 44.574219 75.601562 44.015625 77.28125 C 43.628906 76.738281 43.628906 76.738281 43.34375 75.9375 C 43.644531 74.921875 43.644531 74.921875 44.140625 73.835938 C 44.304688 73.472656 44.464844 73.113281 44.632812 72.738281 C 44.761719 72.464844 44.890625 72.1875 45.023438 71.902344 Z M 45.023438 71.902344 "/>
<path style=" stroke:none;fill-rule:nonzero;fill:rgb(97.647059%,85.882354%,28.235295%);fill-opacity:1;" d="M 77.488281 73.5625 C 77.996094 73.660156 77.996094 73.660156 78.511719 73.761719 C 78.898438 73.839844 78.898438 73.839844 79.296875 73.921875 C 79.40625 73.699219 79.519531 73.476562 79.632812 73.246094 C 79.632812 73.582031 79.632812 73.914062 79.632812 74.257812 C 79.308594 74.273438 78.984375 74.289062 78.648438 74.304688 C 78.226562 74.332031 77.800781 74.355469 77.363281 74.382812 C 76.734375 74.417969 76.734375 74.417969 76.089844 74.453125 C 75.058594 74.578125 74.449219 74.726562 73.585938 75.265625 C 74.933594 73.507812 75.300781 73.128906 77.488281 73.5625 Z M 77.488281 73.5625 "/>
<path style=" stroke:none;fill-rule:nonzero;fill:rgb(99.607843%,87.843138%,14.901961%);fill-opacity:1;" d="M 96.097656 86.6875 C 96.242188 86.894531 96.386719 87.105469 96.535156 87.316406 C 97.101562 88.105469 97.101562 88.105469 98.113281 88.703125 C 97.78125 88.816406 97.445312 88.925781 97.105469 89.039062 C 96.992188 89.371094 96.882812 89.707031 96.769531 90.046875 C 96.546875 90.046875 96.324219 90.046875 96.097656 90.046875 C 96.03125 89.550781 95.96875 89.054688 95.90625 88.558594 C 95.871094 88.28125 95.835938 88.003906 95.800781 87.71875 C 95.789062 87.488281 95.773438 87.261719 95.761719 87.023438 C 95.871094 86.914062 95.980469 86.800781 96.097656 86.6875 Z M 96.097656 86.6875 "/>
<path style=" stroke:none;fill-rule:nonzero;fill:rgb(99.215686%,89.411765%,19.607843%);fill-opacity:1;" d="M 91.390625 82.992188 C 91.613281 83.101562 91.835938 83.214844 92.0625 83.328125 C 92.0625 84.546875 92.0625 85.765625 92.0625 87.023438 C 91.953125 87.023438 91.84375 87.023438 91.726562 87.023438 C 91.617188 86.246094 91.507812 85.472656 91.390625 84.671875 C 90.949219 84.671875 90.503906 84.671875 90.046875 84.671875 C 90.046875 84.339844 90.046875 84.007812 90.046875 83.664062 C 90.492188 83.664062 90.933594 83.664062 91.390625 83.664062 C 91.390625 83.441406 91.390625 83.21875 91.390625 82.992188 Z M 91.390625 82.992188 "/>
<path style=" stroke:none;fill-rule:nonzero;fill:rgb(95.686275%,80.392158%,22.745098%);fill-opacity:1;" d="M 91.726562 90.382812 C 93.167969 90.382812 94.609375 90.382812 96.097656 90.382812 C 96.097656 90.605469 96.097656 90.828125 96.097656 91.054688 C 94.875 91.167969 93.65625 91.277344 92.398438 91.390625 C 92.179688 91.058594 91.957031 90.726562 91.726562 90.382812 Z M 91.726562 90.382812 "/>
<path style=" stroke:none;fill-rule:nonzero;fill:rgb(95.686275%,86.274511%,26.274511%);fill-opacity:1;" d="M 52.078125 85.007812 C 53.066406 86.277344 53.921875 87.507812 54.433594 89.039062 C 53.15625 88.613281 52.800781 88.144531 52.078125 87.023438 C 51.996094 85.910156 51.996094 85.910156 52.078125 85.007812 Z M 52.078125 85.007812 "/>
<path style=" stroke:none;fill-rule:nonzero;fill:rgb(96.470588%,84.705883%,22.745098%);fill-opacity:1;" d="M 96.433594 57.792969 C 96.542969 57.792969 96.652344 57.792969 96.769531 57.792969 C 96.929688 60.289062 96.929688 60.289062 96.179688 61.171875 C 95.304688 61.539062 94.949219 61.492188 94.078125 61.152344 C 94.523438 60.929688 94.96875 60.707031 95.425781 60.480469 C 95.425781 60.257812 95.425781 60.035156 95.425781 59.808594 C 95.757812 59.808594 96.089844 59.808594 96.433594 59.808594 C 96.433594 59.144531 96.433594 58.476562 96.433594 57.792969 Z M 96.433594 57.792969 "/>
<path style=" stroke:none;fill-rule:nonzero;fill:rgb(96.470588%,84.705883%,18.431373%);fill-opacity:1;" d="M 105.839844 100.464844 C 106.503906 100.628906 106.503906 100.628906 107.183594 100.800781 C 106.742188 101.6875 106.296875 102.574219 105.839844 103.488281 C 105.730469 103.488281 105.617188 103.488281 105.503906 103.488281 C 105.472656 101.421875 105.472656 101.421875 105.503906 100.800781 C 105.613281 100.6875 105.726562 100.578125 105.839844 100.464844 Z M 105.839844 100.464844 "/>
<path style=" stroke:none;fill-rule:nonzero;fill:rgb(96.862745%,81.568629%,24.705882%);fill-opacity:1;" d="M 103.152344 89.375 C 102.597656 89.488281 102.042969 89.597656 101.472656 89.710938 C 101.472656 89.933594 101.472656 90.15625 101.472656 90.382812 C 100.460938 90.699219 100.171875 90.734375 99.121094 90.382812 C 99.230469 90.050781 99.339844 89.71875 99.457031 89.375 C 99.945312 89.308594 100.4375 89.25 100.925781 89.1875 C 101.199219 89.152344 101.472656 89.117188 101.753906 89.082031 C 102.480469 89.039062 102.480469 89.039062 103.152344 89.375 Z M 103.152344 89.375 "/>
<path style=" stroke:none;fill-rule:nonzero;fill:rgb(99.607843%,83.137256%,20.784314%);fill-opacity:1;" d="M 95.089844 84.671875 C 95.308594 84.671875 95.53125 84.671875 95.761719 84.671875 C 95.761719 84.894531 95.761719 85.117188 95.761719 85.34375 C 96.589844 85.675781 96.589844 85.675781 97.441406 86.015625 C 97.441406 86.238281 97.441406 86.460938 97.441406 86.6875 C 96.886719 86.800781 96.332031 86.910156 95.761719 87.023438 C 95.539062 86.246094 95.316406 85.472656 95.089844 84.671875 Z M 95.089844 84.671875 "/>
<path style=" stroke:none;fill-rule:nonzero;fill:rgb(97.254902%,83.92157%,23.921569%);fill-opacity:1;" d="M 59.136719 71.566406 C 59.46875 71.679688 59.800781 71.789062 60.144531 71.902344 C 60.253906 72.457031 60.367188 73.011719 60.480469 73.585938 C 60.035156 73.917969 59.59375 74.25 59.136719 74.59375 C 58.914062 74.371094 58.691406 74.148438 58.464844 73.921875 C 58.6875 73.808594 58.90625 73.699219 59.136719 73.585938 C 59.136719 72.917969 59.136719 72.253906 59.136719 71.566406 Z M 59.136719 71.566406 "/>
<path style=" stroke:none;fill-rule:nonzero;fill:rgb(98.823529%,86.666667%,7.843138%);fill-opacity:1;" d="M 116.59375 96.433594 C 114.996094 97.777344 114.996094 97.777344 114.238281 97.777344 C 114.238281 97.332031 114.238281 96.890625 114.238281 96.433594 C 115.292969 96.082031 115.582031 96.117188 116.59375 96.433594 Z M 116.59375 96.433594 "/>
<path style=" stroke:none;fill-rule:nonzero;fill:rgb(97.254902%,83.529413%,21.568628%);fill-opacity:1;" d="M 50.0625 95.425781 C 50.839844 95.425781 51.617188 95.425781 52.414062 95.425781 C 52.527344 95.976562 52.636719 96.53125 52.753906 97.105469 C 51.617188 96.707031 50.855469 96.339844 50.0625 95.425781 Z M 50.0625 95.425781 "/>
<path style=" stroke:none;fill-rule:nonzero;fill:rgb(95.686275%,84.313726%,17.647059%);fill-opacity:1;" d="M 119.28125 90.046875 C 117.726562 91.054688 117.726562 91.054688 116.59375 91.054688 C 116.59375 90.722656 116.59375 90.390625 116.59375 90.046875 C 117.617188 89.71875 118.253906 89.71875 119.28125 90.046875 Z M 119.28125 90.046875 "/>
<path style=" stroke:none;fill-rule:nonzero;fill:rgb(94.901961%,85.882354%,20%);fill-opacity:1;" d="M 110.878906 84.335938 C 111.210938 84.445312 111.546875 84.558594 111.886719 84.671875 C 112 85.226562 112.109375 85.78125 112.222656 86.351562 C 111.890625 86.574219 111.558594 86.796875 111.214844 87.023438 C 110.878906 84.714844 110.878906 84.714844 110.878906 84.335938 Z M 110.878906 84.335938 "/>
<path style=" stroke:none;fill-rule:nonzero;fill:rgb(94.509804%,85.490197%,27.450982%);fill-opacity:1;" d="M 73.921875 79.96875 C 74.929688 80.640625 74.929688 80.640625 75.101562 81.367188 C 75.121094 81.640625 75.140625 81.914062 75.160156 82.195312 C 75.179688 82.46875 75.203125 82.742188 75.226562 83.027344 C 75.238281 83.238281 75.25 83.445312 75.265625 83.664062 C 74.488281 82.886719 74.425781 82.496094 74.214844 81.4375 C 74.15625 81.164062 74.101562 80.890625 74.042969 80.605469 C 74.003906 80.394531 73.960938 80.183594 73.921875 79.96875 Z M 73.921875 79.96875 "/>
<path style=" stroke:none;fill-rule:nonzero;fill:rgb(98.823529%,81.960785%,18.82353%);fill-opacity:1;" d="M 45.695312 86.6875 C 45.695312 87.132812 45.695312 87.574219 45.695312 88.03125 C 45.472656 88.03125 45.253906 88.03125 45.023438 88.03125 C 44.914062 88.363281 44.800781 88.699219 44.6875 89.039062 C 44.464844 88.597656 44.246094 88.152344 44.015625 87.695312 C 44.941406 86.6875 44.941406 86.6875 45.695312 86.6875 Z M 45.695312 86.6875 "/>
<path style=" stroke:none;fill-rule:nonzero;fill:rgb(97.254902%,83.137256%,23.921569%);fill-opacity:1;" d="M 50.734375 80.640625 C 50.957031 80.640625 51.179688 80.640625 51.40625 80.640625 C 51.519531 81.527344 51.628906 82.414062 51.742188 83.328125 C 51.523438 83.328125 51.300781 83.328125 51.070312 83.328125 C 50.617188 82.417969 50.714844 81.644531 50.734375 80.640625 Z M 50.734375 80.640625 "/>
<path style=" stroke:none;fill-rule:nonzero;fill:rgb(96.470588%,84.313726%,22.352941%);fill-opacity:1;" d="M 54.433594 78.289062 C 54.542969 78.289062 54.652344 78.289062 54.769531 78.289062 C 55.359375 80.289062 55.359375 80.289062 55.441406 80.976562 C 55.105469 81.476562 55.105469 81.476562 54.769531 81.984375 C 54.082031 80.617188 54.085938 79.769531 54.433594 78.289062 Z M 54.433594 78.289062 "/>
<path style=" stroke:none;fill-rule:nonzero;fill:rgb(94.117647%,83.92157%,29.803923%);fill-opacity:1;" d="M 96.769531 75.9375 C 97.609375 76.714844 97.609375 76.714844 98.449219 77.617188 C 98.449219 77.949219 98.449219 78.28125 98.449219 78.625 C 98.226562 78.511719 98.003906 78.402344 97.777344 78.289062 C 97.777344 78.066406 97.777344 77.84375 97.777344 77.617188 C 97.445312 77.503906 97.109375 77.394531 96.769531 77.28125 C 96.769531 76.835938 96.769531 76.394531 96.769531 75.9375 Z M 96.769531 75.9375 "/>
<path style=" stroke:none;fill-rule:nonzero;fill:rgb(98.431373%,83.92157%,22.352941%);fill-opacity:1;" d="M 105.167969 71.230469 C 105.277344 71.230469 105.390625 71.230469 105.503906 71.230469 C 105.503906 71.785156 105.503906 72.339844 105.503906 72.910156 C 104.839844 72.910156 104.171875 72.910156 103.488281 72.910156 C 103.488281 72.691406 103.488281 72.46875 103.488281 72.238281 C 103.929688 72.238281 104.375 72.238281 104.832031 72.238281 C 104.941406 71.90625 105.054688 71.574219 105.167969 71.230469 Z M 105.167969 71.230469 "/>
<path style=" stroke:none;fill-rule:nonzero;fill:rgb(100%,100%,37.254903%);fill-opacity:1;" d="M 89.375 75.601562 C 90.71875 75.9375 90.71875 75.9375 90.71875 75.9375 Z M 89.375 75.601562 "/>
</g>
</svg>
